<mxfile host="app.diagrams.net" modified="2023-11-14T01:38:57.590Z" agent="Mozilla/5.0 (Windows NT 10.0; Win64; x64) AppleWebKit/537.36 (KHTML, like Gecko) Chrome/116.0.0.0 Safari/537.36" version="22.1.0" etag="tChzhfJuvz33xsuGgG1P" type="github">
  <diagram name="第 1 页" id="P7ReCeLaU-K9Yd44qXH2">
    <mxGraphModel>
      <root>
        <mxCell id="0" />
        <mxCell id="1" parent="0" />
      </root>
    </mxGraphModel>
  </diagram>
</mxfile>
